<svg xmlns="http://www.w3.org/2000/svg" viewBox="0 0 63 59.94"><defs><style>.cls-1{fill:#ffd64a;}.cls-2{fill:#f68c3e;}.cls-3{fill:#30b561;}.cls-4{fill:#7cc78f;}</style></defs><title>Asset 2</title><g id="Layer_2" data-name="Layer 2"><g id="Calque_1" data-name="Calque 1"><path class="cls-1" d="M4.18,29.94,29.29,4.83a2.88,2.88,0,0,0,.83-2A2.81,2.81,0,0,0,27,0,30.14,30.14,0,0,0,1.41,20.87a11.4,11.4,0,0,0-.14,1.67A10.87,10.87,0,0,0,4.18,29.94Z"/><path class="cls-2" d="M1.41,20.84s0,.07,0,.11l0-.08Z"/><polygon class="cls-2" points="4.18 29.94 4.18 29.94 4.14 29.98 4.18 29.94"/><path class="cls-2" d="M4.14,30l0,0a10.87,10.87,0,0,1-2.91-7.4,11.4,11.4,0,0,1,.14-1.67l0,.08a29.36,29.36,0,0,0-1,4.19c0,.08,0,.17-.05.25-.1.68-.18,1.37-.24,2.06l0,.39C0,28.55,0,29.26,0,30c0,.5,0,1,0,1.5l0,.5c0,.33,0,.66.08,1s0,.39.07.58.07.59.11.88.07.41.1.61l.15.83c0,.21.09.42.13.62s.12.54.19.8.11.41.16.62.14.52.22.77.13.41.2.62.16.5.25.75l.22.6c.09.25.19.49.29.73s.16.4.25.6.21.47.32.71l.28.58.35.7.3.55c.13.23.26.46.4.69s.2.36.31.53.29.46.44.69l.32.49.51.71c.1.14.2.29.31.43s.41.53.61.78l.26.33c.3.36.6.71.92,1.06l.18.18c.25.28.52.56.78.83l.36.35c.22.21.43.42.66.62l.42.38.63.54.47.38L12,54l.5.37.64.45.53.35c.21.15.43.29.65.43l.54.32.68.39.56.31.69.35.58.28.71.32.59.26.74.29.59.22.78.26.58.19c.27.09.55.16.82.24l.57.15.9.21.52.11c.36.08.74.14,1.11.2l.33.06,1.21.16a3,3,0,0,0,3.07-1.55,2.82,2.82,0,0,0-.54-3.23Z"/><path class="cls-3" d="M58.82,29.94,33.71,4.83a2.88,2.88,0,0,1-.83-2A2.81,2.81,0,0,1,36,0,30.14,30.14,0,0,1,61.59,20.87a11.4,11.4,0,0,1,.14,1.67A10.87,10.87,0,0,1,58.82,29.94Z"/><path class="cls-2" d="M61.59,20.84s0,.07,0,.11l0-.08Z"/><polygon class="cls-2" points="58.82 29.94 58.82 29.94 58.86 29.98 58.82 29.94"/><path class="cls-4" d="M58.86,30l0,0a10.87,10.87,0,0,0,2.91-7.4,11.4,11.4,0,0,0-.14-1.67l0,.08a29.36,29.36,0,0,1,1,4.19c0,.08,0,.17,0,.25.1.68.18,1.37.24,2.06l0,.39c0,.71.08,1.42.08,2.14,0,.5,0,1,0,1.5l0,.5c0,.33,0,.66-.08,1s0,.39-.07.58-.07.59-.11.88-.07.41-.1.61l-.15.83c0,.21-.09.42-.13.62s-.12.54-.19.8-.11.41-.16.62-.14.52-.22.77-.13.41-.2.62-.16.5-.25.75l-.22.6c-.09.25-.19.49-.29.73s-.16.4-.25.6-.21.47-.32.71l-.28.58-.35.7-.3.55c-.13.23-.26.46-.4.69s-.2.36-.31.53-.29.46-.44.69l-.32.49-.51.71c-.1.14-.2.29-.31.43s-.41.53-.61.78l-.26.33c-.3.36-.6.71-.92,1.06l-.18.18c-.25.28-.52.56-.78.83l-.36.35c-.22.21-.43.42-.66.62l-.42.38-.63.54-.47.38-.63.49-.5.37-.64.45-.53.35c-.21.15-.43.29-.65.43l-.54.32-.68.39-.56.31-.69.35-.58.28-.71.32-.59.26-.74.29-.59.22-.78.26-.58.19c-.27.09-.55.16-.82.24l-.57.15-.9.21-.52.11c-.36.08-.74.14-1.11.2l-.33.06-1.21.16a3,3,0,0,1-3.07-1.55,2.82,2.82,0,0,1,.54-3.23Z"/></g></g></svg>